# xmcd CD database file
# Copyright (C) 1993-1998 Ti Kan
# 
# Track frame offsets:
#     150
#     19342
#     35419
#     52383
#     73319
#     90399
#     105151
#     120023
#     138811
#     153309
#     174487
#     190013
#     200099
#     218008
#     234330
#     257374
#     272085
# 
# Disc length: 3748 seconds
# 
# Revision: 1
# Processed by: cddbd v1.4b41PL1 Copyright (c) Steve Scherf et al.
# Submitted via: DiscPlay 4.0.3
# 
DISCID=e00ea211
DTITLE=Various Artist - WeeBee Jammin' Vol. 3
DYEAR=1900
DGENRE=
TTITLE0=Cotton-Eye Joe
TTITLE1=TubThumping
TTITLE2=How Bizzare
TTITLE3=Love Roller Coaster
TTITLE4=Men In Black
TTITLE5=Barbie Girl
TTITLE6=Impression That I Get
TTITLE7=I Wish
TTITLE8=Low Rider
TTITLE9=Call Me Al
TTITLE10=Da-Da-Da
TTITLE11=Lump
TTITLE12=Creep
TTITLE13=The Beautiful People
TTITLE14=For Whom The Bell Tolls
TTITLE15=Video Killed The Radio Star
TTITLE16=It's Not Unusual
EXTD=
EXTT0=
EXTT1=
EXTT2=
EXTT3=
EXTT4=
EXTT5=
EXTT6=
EXTT7=
EXTT8=
EXTT9=
EXTT10=
EXTT11=
EXTT12=
EXTT13=
EXTT14=
EXTT15=
EXTT16=
PLAYORDER=
